<?xml version="1.0" ?><svg height="200" id="svg2" version="1.1" width="200" xmlns="http://www.w3.org/2000/svg" xmlns:cc="http://creativecommons.org/ns#" xmlns:dc="http://purl.org/dc/elements/1.1/" xmlns:inkscape="http://www.inkscape.org/namespaces/inkscape" xmlns:rdf="http://www.w3.org/1999/02/22-rdf-syntax-ns#" xmlns:sodipodi="http://sodipodi.sourceforge.net/DTD/sodipodi-0.dtd" xmlns:svg="http://www.w3.org/2000/svg"><defs id="defs4"/><g id="layer1" style="display:inline" transform="translate(0,-852.36218)"><path d="m 100,10 c -49.705627,0 -90,40.294373 -90,90 0,49.70563 40.294373,90 90,90 1.96568,0 3.87817,-0.18838 5.8125,-0.3125 6.56774,-0.42145 12.93133,-1.60811 19.03125,-3.375 5.67307,-1.64325 11.11833,-3.78198 16.28125,-6.4375 24.86147,-12.78734 42.92154,-36.76697 47.59375,-65.3125 C 189.49546,109.81711 190,104.96886 190,100 c 0,-3.650216 -0.29637,-7.213524 -0.71875,-10.75 -0.0857,-0.717749 -0.24127,-1.412524 -0.34375,-2.125 C 182.66932,43.544928 145.31458,10 100,10 z" id="path5742" style="fill:#364e67;fill-opacity:1;stroke:none" transform="translate(0,852.36218)"/><g id="g3" style="fill:#ececec" transform="matrix(1.1111111,0,0,1.1111111,44.444445,896.33774)"><defs id="defs5"><rect height="100" id="SVGID_1_" width="100" x="0" y="0"/></defs><path d="m 88.266,38.962 c 0,4.582 -3.729,8.298 -8.328,8.298 -4.604,0 -8.33,-3.716 -8.33,-8.298 0,-4.582 3.728,-8.297 8.33,-8.297 4.599,0.001 8.328,3.715 8.328,8.297 m -3.356,14.02 -10.086,8.594 c 0.109,0.686 0.183,1.383 0.183,2.098 0,7.316 -5.954,13.248 -13.296,13.248 -6.334,0 -11.623,-4.414 -12.963,-10.32 L 23.817,58.175 c -1.969,1.489 -4.419,2.386 -7.083,2.386 C 10.253,60.561 5,55.325 5,48.87 5,42.415 10.254,37.182 16.734,37.182 c 5.573,0 10.226,3.869 11.428,9.054 l 24.083,8.142 c 2.346,-2.369 5.581,-3.854 9.166,-3.935 l 3.607,-10.924 c -0.011,-0.217 -0.033,-0.431 -0.033,-0.649 0,-8.255 6.721,-14.948 15.008,-14.948 C 88.28,23.922 95,30.614 95,38.87 95,45.41 90.779,50.953 84.91,52.982 M 24.112,44.869 c -1.402,-2.515 -4.093,-4.218 -7.183,-4.218 -4.538,0 -8.218,3.665 -8.218,8.185 0,4.52 3.68,8.184 8.218,8.184 0.839,0 1.647,-0.125 2.408,-0.358 l -3.903,-1.319 c -3.146,-1.678 -4.331,-5.578 -2.645,-8.713 1.686,-3.131 5.602,-4.31 8.745,-2.631 l 2.578,0.87 z m 44.177,-5.965 c 0,6.412 5.217,11.611 11.654,11.611 6.437,0 11.658,-5.199 11.658,-11.611 0,-6.414 -5.222,-11.613 -11.658,-11.613 -6.437,0.001 -11.654,5.2 -11.654,11.613 m 0.229,25.907 c 0,-4.881 -3.973,-8.84 -8.873,-8.84 -0.688,0 -1.352,0.086 -1.994,0.232 l 4.959,1.676 c 3.145,1.68 4.326,5.58 2.642,8.711 -1.685,3.137 -5.601,4.312 -8.744,2.635 l -5.343,-1.807 c 1.115,3.609 4.49,6.232 8.48,6.232 4.9,0 8.873,-3.959 8.873,-8.839" id="path8" style="fill:#ececec"/></g></g><g id="layer3" style="display:inline"/><g id="layer4" style="display:inline"><path d="M 98.6875 10.09375 C 59.471926 10.678953 23.778638 37.052587 13.125 76.8125 C 0.26023967 124.82445 28.76932 174.16665 76.78125 187.03125 C 78.67995 187.54005 80.56825 187.8693 82.46875 188.25 C 88.338036 189.42576 94.20854 189.91782 100 189.90625 L 100 10.09375 C 99.561451 10.093839 99.125197 10.087218 98.6875 10.09375 z " id="rect2989" style="fill:#ffffff;fill-opacity:1;fill-rule:nonzero;stroke:none;opacity:0.15"/><rect height="1.2962025" id="rect3759" style="opacity:0.1;fill:#ffffff;fill-opacity:1;fill-rule:nonzero;stroke:none" width="1.9443038" x="-113.41772" y="68.759491"/></g></svg>