<?xml version="1.0" encoding="utf-8"?>
<!-- Generator: Adobe Illustrator 21.0.2, SVG Export Plug-In . SVG Version: 6.00 Build 0)  -->
<svg version="1.1" id="Layer" xmlns="http://www.w3.org/2000/svg" xmlns:xlink="http://www.w3.org/1999/xlink" x="0px" y="0px"
	 viewBox="0 0 500 500" style="enable-background:new 0 0 500 500;" xml:space="preserve">
<style type="text/css">
	.st0{fill:#333333;}
</style>
<g id="Eyes">
	<path class="st0" d="M229,138c16,0,29,13,29,29s-13,29-29,29s-29-13-29-29S213,138,229,138 M229,122c-24.9,0-45,20.1-45,45
		s20.1,45,45,45s45-20.1,45-45S253.9,122,229,122L229,122z"/>
	<path class="st0" d="M345,138c16,0,29,13,29,29s-13,29-29,29s-29-13-29-29S329,138,345,138 M345,122c-24.9,0-45,20.1-45,45
		s20.1,45,45,45s45-20.1,45-45S369.9,122,345,122L345,122z"/>
</g>
<g id="Group">
	<path id="Steam" class="st0" d="M102.1,373.9c-1.8-13.2,6.3-25.2,18.3-26.9c12-1.7,23,7.6,24.9,20.8c1.8,13.2-6.3,25.2-18.3,26.9
		C115.1,396.3,103.9,387,102.1,373.9L102.1,373.9z M130.1,415c22.2-3.1,37.4-25.3,34.1-49.6l19.5-43.1c1.1,0,2.2-0.1,3.1-0.3
		c5.3-0.7,10.4-3.1,14.7-6.8l120.7,34.3c5.2,14.8,19,23.8,33,21.9c16.6-2.4,28-19.1,25.5-37.4c-2.6-18.3-18.1-31.3-34.8-28.9
		c-5.3,0.7-10.4,3.1-14.7,6.8l-120.7-34.3c-5.2-14.8-19-23.8-33-21.9c-15.5,2.3-26.5,17.2-25.7,34l-34.2,36.5
		c-22.2,3.1-37.5,25.4-34,49.8c0,0.1,0,0.1,0,0.1c3.4,24.5,24.1,41.7,46.4,38.6l0,0C129.9,414.7,130.2,415.1,130.1,415z
		 M128.1,400.4c-14.8,2.1-28.8-9.5-31.1-25.8c-2.3-16.4,7.9-31.4,22.7-33.5c14.9-2.1,28.8,9.5,31.1,25.8
		C153.1,383.4,142.9,398.4,128.1,400.4z M354,362.7c-8.5,1.2-16.6-3-21.3-10.1l11.7,3.3c9.5,2.2,18.6-4,20.6-14.1
		c2.3-10.1-3.5-20.5-12.6-23.5l-9.9-2.8c1.5-0.6,3.1-1.1,4.7-1.2c12.3-1.7,23.7,7.7,25.6,21.2v0.1c1.9,13.4-6.5,25.7-18.7,27.5
		c0.1,0,0,0,0,0L354,362.7z M185.7,313.3c-12.3,1.7-23.7-7.7-25.6-21.2V292c-1.9-13.4,6.5-25.7,18.6-27.5h0.1
		c8.2-1.2,16.4,2.8,21.4,10.3c-3.8-1.1-7.7-2.2-11.6-3.3c-9.6-2.6-19.2,3.5-21.5,13.9s3.7,21,13.3,23.7l0,0l9.8,2.8
		c-1.5,0.6-3.1,1-4.7,1.2C185.5,313.3,185.6,313.3,185.7,313.3z"/>
	<path id="Border" class="st0" d="M250,30c29.7,0,58.5,5.8,85.6,17.3c26.2,11.1,49.7,26.9,69.9,47.2c20.2,20.2,36.1,43.7,47.2,69.9
		c11.5,27.1,17.3,55.9,17.3,85.6s-5.8,58.5-17.3,85.6c-11.1,26.2-26.9,49.7-47.2,69.9c-20.2,20.2-43.7,36.1-69.9,47.2
		C308.5,464.2,279.7,470,250,470s-58.5-5.8-85.6-17.3c-26.2-11.1-49.7-26.9-69.9-47.2c-20.2-20.2-36.1-43.7-47.2-69.9
		C35.8,308.5,30,279.7,30,250s5.8-58.5,17.3-85.6c11.1-26.2,26.9-49.7,47.2-69.9s43.7-36.1,69.9-47.2C191.5,35.8,220.3,30,250,30
		 M250,0C111.9,0,0,111.9,0,250s111.9,250,250,250s250-111.9,250-250S388.1,0,250,0L250,0z"/>
</g>
</svg>
